<svg xmlns="http://www.w3.org/2000/svg" xmlns:xlink="http://www.w3.org/1999/xlink" version="1.1" x="0px" y="0px" viewBox="0 0 89.21223 32" enable-background="new 0 0 89.21223 32" fill="#fff" xml:space="preserve"><g><path d="M40.61172 15.59464c-0.0125-0.21672-0.05495-0.49036-0.12513-0.72235 c-0.07067-0.23138-0.17995-0.44123-0.32748-0.62081c-0.14814-0.17952-0.33378-0.32946-0.55928-0.44518 c-0.22402-0.11547-0.50336-0.17437-0.83765-0.17437c-0.32104 0-0.59654 0.05322-0.82749 0.163 c-0.23145 0.1096-0.42389 0.2536-0.57848 0.43318c-0.15446 0.18008-0.27228 0.39796-0.35694 0.636 c-0.08316 0.23732-0.14381 0.51437-0.18255 0.73108H40.61172z M33.86938 16.67455c0-0.89972 0.13875-1.68538 0.41399-2.35977 c0.27712-0.67346 0.63962-1.23623 1.08877-1.68579c0.44976-0.44926 0.9666-0.78894 1.55114-1.02045 c0.58392-0.23212 1.18357-0.34784 1.80091-0.34784c1.43777 0 2.573 0.441 3.408 1.32 c0.83541 0.88 1.252 2.173 1.252 3.8809c0 0.1677-0.00618 0.3526-0.01942 0.551 c-0.0125 0.19963-0.02587 0.3151-0.038 0.53132h-6.5109c0.06472 0.65 0.341 1.058 0.828 1.405 c0.48764 0.346 1.143 0.519 1.964 0.51858c0.52712 0 1.04396-0.04777 1.55115-0.14492 c0.50718-0.09679 0.92117-0.21523 1.24211-0.35682l0.38553 2.33137c-0.15384 0.0776-0.35966 0.15359-0.61635 0.232 c-0.25682 0.07612-0.54283 0.1432-0.8572 0.20051c-0.31486 0.05854-0.65224 0.10693-1.01066 0.145 c-0.36015 0.03836-0.7192 0.0573-1.07961 0.0573c-0.91201 0-1.70374-0.1349-2.37801-0.40372 c-0.67501-0.26957-1.23369-0.639-1.67602-1.10758c-0.44321-0.46919-0.77069-1.0244-0.98282-1.66649 C33.97607 18.112 33.869 17.418 33.869 16.675 M32.70996 21.33503c-0.21622 0.07747-0.50261 0.15174-0.8364 0.222 c-0.33429 0.07067-0.65942 0.1323-1.02577 0.18304c-0.36585 0.05137-0.72526 0.09245-1.10509 0.125 c-0.37884 0.03156-0.73429 0.04815-1.08182 0.04815c-0.8343 0-1.57578-0.12191-2.23111-0.3661 c-0.65534-0.24344-1.2054-0.59418-1.65542-1.04965c-0.44933-0.4557-0.79241-1.00806-1.02936-1.6566 c-0.23757-0.64864-0.35601-1.377-0.35601-2.18531c0-0.82261 0.10267-1.56414 0.30836-2.22518 c0.20545-0.66146 0.50131-1.22316 0.88635-1.68549c0.3851-0.46307 0.85682-0.81586 1.41575-1.06017 c0.55904-0.24351 1.19729-0.36518 1.91625-0.36518c0.39803 0 0.733 0.038 1.047 0.116 c0.31449 0.076 0.714 0.186 0.931 0.32674V7.17763l2.81602-0.46146V21.33503z M26.31738 16.519 c0 0.887 0.199 1.599 0.597 2.13828c0.39778 0.54 0.989 0.809 1.772 0.809 c0.25693 0 0.47204-0.00928 0.69035-0.02797c0.21882-0.01943 0.51735-0.0422 0.51735-0.06758V14.1506 c-0.21646-0.11584-0.39111-0.21163-0.68071-0.28893c-0.28949-0.07679-0.56994-0.11584-0.86487-0.11584 C26.98645 13.746 26.317 14.671 26.317 16.519 M18.01337 11.2607c0.84779 0 1.554 0.097 2.119 0.29 c0.56572 0.192 1.018 0.469 1.358 0.82743c0.34122 0.36 0.634 0.797 0.775 1.31 c0.14109 0.515 0.264 1.085 0.264 1.71458v5.97222c-0.43342 0.08886-1.03362 0.19455-1.766 0.317 c-0.73231 0.12203-1.64464 0.1833-2.68446 0.1833c-0.65497 0-1.26216-0.05768-1.79521-0.17364 c-0.53293-0.11548-0.99829-0.3046-1.38333-0.5676c-0.38564-0.26436-0.68448-0.6067-0.88949-1.03108 c-0.20496-0.42402-0.30954-0.94371-0.30954-1.56043c0-0.59036 0.11751-1.09086 0.35545-1.50202 c0.23701-0.41077 0.55459-0.73875 0.95324-0.98226c0.39784-0.24405 0.85354-0.42061 1.36673-0.53002 c0.51437-0.10965 1.04668-0.16405 1.5988-0.16405c0.37246 0 0.724 0.016 1.013 0.048 c0.28856 0.033 0.508 0.074 0.724 0.12563v-0.26982c0-0.48782-0.16894-0.8794-0.46424-1.17471 c-0.29443-0.29531-0.81938-0.44345-1.55176-0.44345c-0.48764 0-0.97483 0.03484-1.44942 0.106 c-0.4755 0.07104-0.88887 0.17085-1.23548 0.29889l-0.36789-2.31206c0.16776-0.05124 0.375-0.10508 0.62582-0.16269 c0.25062-0.05805 0.52296-0.10965 0.81827-0.15471c0.29531-0.04529 0.60645-0.08299 0.93412-0.11566 C17.34912 11.277 17.68 11.261 18.013 11.261 M18.24494 19.65987c0.28261 0 0.57302-0.00655 0.82934-0.01917 c0.25761-0.01288 0.42155-0.03267 0.63801-0.05879v-2.17541c-0.21646-0.02649-0.30954-0.05186-0.5416-0.07723 c-0.23094-0.02537-0.4531-0.03874-0.64568-0.03874c-0.26981 0-0.52903 0.01572-0.76616 0.048 c-0.23838 0.03205-0.44926 0.09244-0.62891 0.18255c-0.17958 0.08986-0.3224 0.21077-0.4252 0.366 c-0.10216 0.15433-0.15415 0.34642-0.15415 0.5781c0 0.449 0.15 0.76 0.452 0.934 C17.30469 19.574 17.718 19.66 18.245 19.66 M13.69713 14.07375c-0.25688-0.06436-0.55979-0.13182-0.90479-0.2021 c-0.34741-0.07135-0.71944-0.10613-1.11797-0.10613c-0.17939 0-0.42587 0.0154-0.6765 0.049 c-0.25081 0.03211-0.38311 0.06732-0.59994 0.10563v7.74038h-2.8161v-9.58961c0.43305-0.17965 1.12516-0.34989 1.82454-0.51097 c0.70002-0.16016 1.48246-0.23986 2.34288-0.23986c0.1542 0 0.342 0.008 0.56 0.029 c0.21782 0.019 0.437 0.044 0.656 0.07666c0.21777 0.033 0.437 0.07 0.654 0.115 c0.21912 0.046 0.405 0.1 0.559 0.16479L13.69713 14.07375z M0 9.00756l3.03299-0.46257v2.93409h3.46566v2.3826H3.03299 v3.62168c0 0.603 0.072 1.084 0.284 1.44458c0.21151 0.359 0.622 0.539 1.264 0.539 c0.30825 0 0.61728-0.02797 0.94457-0.08614c0.32817-0.05779 0.62193-0.13812 0.89186-0.24085l0.40316 2.235 c-0.34734 0.1396-0.73356 0.26213-1.15689 0.3651c-0.42408 0.10334-0.94401 0.15409-1.56105 0.154 c-0.78312 0-1.43172-0.10581-1.94553-0.31845c-0.51375-0.21176-0.92476-0.50669-1.23312-0.88554 C0.61648 20.311 0.353 19.852 0.231 19.31345C0.10929 18.774 0 18.177 0 17.52147V9.00756z M87.34436 16.656 c0-1.1301-0.25321-2.02671-0.76153-2.68762c-0.50645-0.66158-1.19643-0.99167-2.07033-0.99167 c-0.87341 0-1.56328 0.33008-2.07034 0.99167c-0.50694 0.66091-0.76153 1.55753-0.76153 2.688 c0 1.129 0.255 2.025 0.762 2.68631c0.50706 0.662 1.197 0.992 2.07 0.992 c0.8739 0 1.56388-0.32959 2.07033-0.99162C87.09115 18.681 87.344 17.784 87.344 16.656 M89.21223 16.656 c0 0.79568-0.11474 1.51439-0.34642 2.15622c-0.2307 0.64198-0.55533 1.19471-0.97254 1.657 c-0.41747 0.46115-0.91449 0.81772-1.49347 1.06859c-0.57761 0.25075-1.20659 0.37574-1.88729 0.376 c-0.68009 0-1.30932-0.125-1.88705-0.37574c-0.57847-0.25087-1.07625-0.60744-1.49335-1.06859 c-0.41745-0.46238-0.74135-1.01511-0.97304-1.65709c-0.23155-0.64184-0.34628-1.36054-0.34628-2.15622 c0-0.78406 0.11473-1.49972 0.34628-2.14844c0.23169-0.64896 0.55559-1.20467 0.97304-1.66619 c0.4171-0.46251 0.91488-0.81895 1.49335-1.06839c0.57774-0.2507 1.20696-0.37569 1.88705-0.37569 c0.6807 0 1.31 0.125 1.887 0.37569c0.57898 0.249 1.076 0.606 1.493 1.068 c0.41721 0.462 0.742 1.017 0.973 1.66619C89.09749 15.156 89.212 15.872 89.212 16.656 M75.75317 16.154 c0.38577 0.295 0.793 0.661 1.223 1.09779c0.42959 0.438 0.854 0.908 1.271 1.416 c0.41708 0.506 0.812 1.019 1.185 1.53902c0.37241 0.521 0.687 1.019 0.944 1.45288h-2.09967 c-0.26955-0.43343-0.58094-0.9067-0.93468-1.37565c-0.35272-0.46895-0.72216-0.9176-1.10719-1.34793 c-0.38515-0.43057-0.80397-0.82501-1.20311-1.1843c-0.39754-0.35892-0.72997-0.66053-1.16339-0.90473v4.81261h-1.73296V7.02354 l1.73296-0.30737v9.1299c0.43342-0.30836 0.67575-0.6494 1.04816-1.0207c0.37228-0.37308 0.75237-0.75162 1.11202-1.13727 c0.3599-0.38559 0.70609-0.73015 1.02786-1.08257c0.32104-0.35267 0.60386-0.6929 0.83481-0.9096h2.09966 c-0.29555 0.2167-0.61597 0.64976-0.9635 1.03411c-0.34567 0.38559-0.70583 0.76202-1.07837 1.154 c-0.37228 0.39202-0.74852 0.77711-1.12663 1.16877C76.4434 15.444 76.087 15.808 75.753 16.154 M68.78532 21.894 c-0.80843 0-1.5181-0.12871-2.12777-0.38577c-0.6104-0.25607-1.12428-0.61598-1.54173-1.07837 c-0.4166-0.46227-0.72836-1.01066-0.93356-1.64706c-0.20521-0.63516-0.30819-1.33815-0.30819-2.10833 c0-0.77099 0.11188-1.47789 0.33665-2.11899c0.22501-0.64196 0.54295-1.19785 0.95348-1.66649 c0.41152-0.46856 0.91437-0.83479 1.51241-1.09736c0.59655-0.26356 1.26128-0.39481 1.99348-0.39481 c0.44914 0 0.898 0.038 1.348 0.1143c0.44952 0.078 0.88 0.2 1.291 0.36658l-0.40497 1.521 c-0.26894-0.12815-0.58095-0.23033-0.93393-0.30768c-0.3531-0.07798-0.72836-0.11523-1.12663-0.11523 c-1.00151 0-1.7686 0.31381-2.30179 0.94334c-0.5333 0.62897-0.79927 1.5468-0.79927 2.755 c0 0.538 0.06 1.034 0.183 1.48221c0.12216 0.45 0.314 0.835 0.578 1.157 c0.26363 0.32 0.601 0.568 1.012 0.74124c0.41041 0.173 0.911 0.26 1.502 0.26 c0.47549 0 0.90472-0.0448 1.29-0.1354c0.38503-0.08861 0.68715-0.18564 0.90521-0.289l0.25088 1.504 c-0.10273 0.06374-0.25088 0.12438-0.44308 0.1818c-0.19283 0.05855-0.4109 0.11003-0.65521 0.154 c-0.24345 0.04603-0.50397 0.08391-0.78022 0.11622C69.30885 21.878 69.042 21.894 68.785 21.894 M61.24037 15.595 c0.01237-0.64977-0.19036-1.42534-0.60695-1.9449c-0.41758-0.52044-0.99173-0.75627-1.72441-0.75627 c-0.41041 0-0.77391 0.09282-1.08802 0.2531c-0.31411 0.1604-0.58132 0.37512-0.79903 0.632 c-0.21906 0.25632-0.38887 0.50713-0.51164 0.84086c-0.12191 0.33335-0.20174 0.75861-0.23999 0.97533H61.24037z M54.36337 16.67455c0-0.88684 0.12884-1.66 0.38503-2.32146c0.25706-0.66103 0.59728-1.21079 1.02031-1.64713 c0.4244-0.43714 0.91277-0.76326 1.46477-0.98158c0.55198-0.21925 1.11772-0.32748 1.69496-0.32748 c1.34841 0 2.347 0.42 3.066 1.26055c0.71945 0.841 1.043 2.123 1.043 3.84284v0.29877 c0 0.123 0.065 0.312 0.052 0.31201h-6.85682c0.07661 1.083 0.379 1.842 0.905 2.382 c0.52686 0.54 1.349 0.815 2.466 0.815c0.62922 0 1.1593-0.05223 1.58976-0.16028 c0.42984-0.10952 0.75373-0.21337 0.9728-0.31634l0.25012 1.503c-0.21844 0.11585-0.60038 0.238-1.14618 0.367 c-0.54531 0.1276-1.16537 0.19281-1.85883 0.19281c-0.87317 0-1.62838-0.13106-2.26305-0.39481 c-0.63664-0.26337-1.15942-0.62588-1.56983-1.08876c-0.4109-0.46227-0.71635-1.01042-0.91499-1.64682 C54.46251 18.128 54.363 17.431 54.363 16.675 M51.33991 13.22657c-0.2172-0.0513-0.43763-0.09969-0.73925-0.14567 c-0.30235-0.04431-0.71821-0.06733-1.23196-0.06733c-0.96288 0-1.70906 0.31548-2.22851 0.944 c-0.52018 0.62891-0.78244 1.46396-0.78244 2.50364c0 0.578 0.073 1.072 0.22 1.484 c0.14816 0.412 0.346 0.751 0.597 1.02069c0.25037 0.27 0.539 0.468 0.867 0.597 c0.32649 0.129 0.664 0.194 1.01 0.19394c0.47501 0 0.92849-0.06758 1.32676-0.20249 c0.39828-0.1349 0.74396-0.29257 0.96116-0.47215V13.22657z M51.33991 20.66138c-0.2172 0.10248-0.46064 0.23478-0.90311 0.395 c-0.44246 0.16076-0.964 0.24034-1.55485 0.24034c-0.60324 0-1.17316-0.09641-1.70648-0.28874 c-0.53219-0.19344-0.99903-0.49147-1.39729-0.89606c-0.39766-0.40347-0.71327-0.90782-0.9442-1.51166 c-0.23095-0.60324-0.34642-1.32256-0.34642-2.1571c0-0.7322 0.1089-1.40331 0.32698-2.0128 c0.21833-0.60966 0.53566-1.13708 0.95386-1.57973c0.41696-0.44302 0.9275-0.7898 1.5311-1.04043 c0.60273-0.25025 1.28468-0.37495 2.0415-0.37495c0.83529 0 1.551 0.06 2.174 0.182 c0.62354 0.122 1.125 0.235 1.558 0.33843v8.93656c0 1.54162-0.38553 2.65811-1.18245 3.352 c-0.79606 0.69358-1.99707 1.04-3.61518 1.04c-0.62923 0-1.21995-0.05149-1.7785-0.15446 c-0.55906-0.10235-1.04211-0.22475-1.45251-0.36561l0.32824-1.56005c0.35917 0.141 0.8 0.266 1.319 0.375 c0.52117 0.109 1.064 0.164 1.629 0.16424c1.06474 0 1.83988-0.21262 2.30833-0.63627 c0.46821-0.42451 0.71078-1.09779 0.71078-2.02207V20.66138z"/></g></svg>
